<svg width="18" height="18" viewBox="0 0 18 18" fill="none" xmlns="http://www.w3.org/2000/svg">
<path d="M9.00007 0C4.03012 0 0 4.02938 0 9.00007C0 12.9765 2.5788 16.3502 6.1548 17.5402C6.6046 17.6235 6.76973 17.345 6.76973 17.1073C6.76973 16.8927 6.76138 16.1837 6.75751 15.4316C4.25368 15.9761 3.72534 14.3697 3.72534 14.3697C3.31593 13.3295 2.72604 13.0529 2.72604 13.0529C1.90947 12.4943 2.7876 12.5057 2.7876 12.5057C3.69136 12.5692 4.16724 13.4332 4.16724 13.4332C4.96995 14.8091 6.27269 14.4113 6.78627 14.1814C6.86705 13.5997 7.10029 13.2026 7.35768 12.9779C5.35864 12.7503 3.25721 11.9786 3.25721 8.53001C3.25721 7.54741 3.60879 6.74454 4.18453 6.11426C4.09108 5.88758 3.78302 4.97219 4.27171 3.73249C4.27171 3.73249 5.02748 3.49061 6.74737 4.65504C7.46529 4.45562 8.23521 4.35562 9.00007 4.35219C9.76493 4.35562 10.5355 4.45562 11.2547 4.65504C12.9725 3.49061 13.7272 3.73249 13.7272 3.73249C14.2171 4.97219 13.9089 5.88758 13.8155 6.11426C14.3925 6.74454 14.7417 7.54741 14.7417 8.53001C14.7417 11.9868 12.6363 12.7479 10.6322 12.9707C10.955 13.25 11.2426 13.7977 11.2426 14.6374C11.2426 15.8416 11.2322 16.8108 11.2322 17.1073C11.2322 17.3468 11.3942 17.6274 11.8504 17.539C15.4245 16.3476 18 12.9752 18 9.00007C18 4.02938 13.9705 0 9.00007 0ZM3.37082 12.8208C3.351 12.8655 3.28065 12.8789 3.21657 12.8482C3.15129 12.8189 3.11463 12.7579 3.13579 12.713C3.15516 12.667 3.22566 12.6542 3.29079 12.685C3.35621 12.7144 3.39347 12.7759 3.37082 12.8208ZM3.81352 13.2158C3.7706 13.2556 3.68669 13.2371 3.62976 13.1742C3.57089 13.1115 3.55986 13.0276 3.60338 12.9872C3.64765 12.9474 3.72902 12.966 3.78804 13.0288C3.84691 13.0923 3.85838 13.1756 3.81352 13.2158ZM4.11724 13.7212C4.06209 13.7595 3.97192 13.7236 3.91618 13.6436C3.86104 13.5635 3.86104 13.4676 3.91738 13.4291C3.97327 13.3907 4.06209 13.4252 4.11858 13.5047C4.17357 13.5861 4.17357 13.682 4.11724 13.7212ZM4.63088 14.3066C4.58155 14.361 4.47647 14.3464 4.39957 14.2721C4.32088 14.1996 4.29897 14.0966 4.34845 14.0422C4.39838 13.9876 4.50405 14.003 4.58155 14.0766C4.65964 14.149 4.68349 14.2528 4.63088 14.3066ZM5.29471 14.5042C5.27295 14.5747 5.17175 14.6067 5.06981 14.5768C4.96802 14.5459 4.9014 14.4633 4.92197 14.3921C4.94313 14.3212 5.04477 14.2878 5.14746 14.3198C5.2491 14.3505 5.31587 14.4325 5.29471 14.5042ZM6.05018 14.588C6.05271 14.6622 5.96627 14.7238 5.85926 14.7251C5.75165 14.7275 5.66462 14.6674 5.66342 14.5944C5.66342 14.5194 5.74793 14.4585 5.85553 14.4567C5.96254 14.4546 6.05018 14.5142 6.05018 14.588ZM6.79234 14.5595C6.80516 14.632 6.73079 14.7063 6.62452 14.7262C6.52005 14.7452 6.42332 14.7005 6.41006 14.6287C6.39709 14.5545 6.4728 14.4801 6.57713 14.4609C6.68354 14.4424 6.77878 14.4859 6.79234 14.5595Z" fill="white"/>
</svg>