<svg width="18" height="18" viewBox="0 0 18 18" fill="none" xmlns="http://www.w3.org/2000/svg">
<path d="M5.27263 0.0629445C4.31502 0.108125 3.66107 0.260947 3.08939 0.485589C2.49772 0.716171 1.99623 1.02559 1.49727 1.52636C0.998305 2.02712 0.691042 2.52897 0.462079 3.12154C0.240497 3.69448 0.0903755 4.34897 0.0480751 5.30712C0.00577466 6.26527 -0.00358544 6.57325 0.0010946 9.01732C0.00577465 11.4614 0.0165748 11.7677 0.0630152 12.7279C0.108736 13.6853 0.261017 14.3391 0.485659 14.9109C0.716602 15.5026 1.02566 16.0039 1.52661 16.5031C2.02755 17.0022 2.52904 17.3087 3.12305 17.5381C3.69545 17.7593 4.35012 17.9101 5.30809 17.9521C6.26606 17.994 6.5744 18.0037 9.01775 17.999C11.4611 17.9944 11.7687 17.9836 12.7287 17.938C13.6886 17.8925 14.339 17.7391 14.911 17.5156C15.5027 17.2841 16.0043 16.9756 16.5031 16.4744C17.0019 15.9733 17.309 15.4711 17.5378 14.8782C17.7595 14.3058 17.9102 13.6511 17.9518 12.6939C17.9937 11.7332 18.0036 11.4265 17.9989 8.98276C17.9943 6.53905 17.9833 6.23269 17.9377 5.27292C17.8922 4.31315 17.7397 3.66136 17.5153 3.08914C17.284 2.49747 16.9753 1.99652 16.4745 1.49702C15.9737 0.997514 15.4712 0.690611 14.8784 0.462369C14.3057 0.240786 13.6514 0.0897648 12.6934 0.0483643C11.7354 0.00696392 11.4271 -0.00365619 8.98283 0.00102386C6.53858 0.00570391 6.23258 0.016144 5.27263 0.0629445ZM5.37775 16.333C4.50024 16.2948 4.02378 16.149 3.70625 16.0269C3.28577 15.8649 2.98624 15.6691 2.6698 15.3557C2.35336 15.0423 2.15896 14.7417 1.99479 14.3221C1.87149 14.0046 1.72299 13.5287 1.68195 12.6512C1.63731 11.7028 1.62795 11.418 1.62273 9.01516C1.61751 6.61231 1.62669 6.32791 1.66827 5.37912C1.70571 4.50233 1.85241 4.02533 1.97427 3.70798C2.13628 3.28696 2.3314 2.98797 2.6455 2.67171C2.9596 2.35545 3.25931 2.16069 3.67925 1.99652C3.99641 1.87268 4.47234 1.72544 5.34949 1.68368C6.29864 1.63868 6.58304 1.62968 8.98553 1.62446C11.388 1.61924 11.6731 1.62824 12.6226 1.67C13.4994 1.70816 13.9766 1.85342 14.2936 1.976C14.7143 2.13801 15.0136 2.33259 15.3299 2.64723C15.6461 2.96187 15.8411 3.2605 16.0052 3.68134C16.1293 3.9976 16.2765 4.47335 16.3179 5.35104C16.3631 6.30019 16.3733 6.58477 16.3777 8.98708C16.382 11.3894 16.3735 11.6747 16.3319 12.6231C16.2936 13.5006 16.1482 13.9773 16.0259 14.2951C15.8639 14.7155 15.6686 15.0152 15.3543 15.3312C15.0401 15.6473 14.7407 15.8421 14.3206 16.0062C14.0038 16.1299 13.5273 16.2775 12.6509 16.3193C11.7018 16.3639 11.4174 16.3733 9.01397 16.3785C6.61058 16.3837 6.32708 16.374 5.37793 16.333M12.7148 4.18985C12.7152 4.40347 12.7789 4.61218 12.8978 4.7896C13.0168 4.96702 13.1858 5.10516 13.3833 5.18657C13.5808 5.26797 13.798 5.28897 14.0074 5.24692C14.2169 5.20487 14.4091 5.10166 14.5599 4.95033C14.7107 4.799 14.8132 4.60635 14.8545 4.39676C14.8957 4.18716 14.8739 3.97003 14.7918 3.77283C14.7097 3.57563 14.5709 3.40721 14.3931 3.28888C14.2152 3.17054 14.0063 3.10761 13.7927 3.10804C13.5063 3.10861 13.2319 3.22289 13.0297 3.42576C12.8276 3.62863 12.7143 3.90347 12.7148 4.18985ZM4.37892 9.00904C4.38396 11.5615 6.45686 13.6259 9.00875 13.621C11.5606 13.6162 13.6265 11.5435 13.6217 8.99104C13.6168 6.43861 11.5434 4.37363 8.99111 4.37867C6.43886 4.38371 4.37406 6.45697 4.37892 9.00904ZM6.00002 9.0058C5.99884 8.41244 6.17365 7.83205 6.50232 7.33804C6.831 6.84403 7.29879 6.45857 7.84653 6.23042C8.39428 6.00226 8.99737 5.94166 9.57956 6.05626C10.1617 6.17087 10.6969 6.45554 11.1173 6.87428C11.5377 7.29302 11.8245 7.82702 11.9414 8.40875C12.0583 8.99048 12.0001 9.59381 11.7741 10.1425C11.5481 10.6911 11.1645 11.1604 10.6718 11.491C10.1791 11.8217 9.59941 11.9988 9.00605 11.9999C8.61205 12.0008 8.22176 11.924 7.85745 11.7739C7.49314 11.6239 7.16196 11.4036 6.88281 11.1255C6.60367 10.8475 6.38203 10.5172 6.23056 10.1535C6.07909 9.78977 6.00075 9.39979 6.00002 9.0058Z" fill="white"/>
</svg>