<svg width="18" height="16" viewBox="0 0 18 16" fill="none" xmlns="http://www.w3.org/2000/svg">
<path d="M17.1167 14.214C17.1553 14.2144 17.1936 14.2069 17.2292 14.192C17.2648 14.1772 17.2969 14.1552 17.3235 14.1275C17.3502 14.0999 17.3708 14.067 17.3841 14.0312C17.3974 13.9953 17.4032 13.957 17.4009 13.9189C17.4009 13.7095 17.2734 13.6095 17.0117 13.6095H16.5889V14.7055H16.7479V14.2277H16.9433L16.9478 14.2336L17.2511 14.7055H17.4212L17.0949 14.217L17.1167 14.214ZM16.9328 14.1042H16.7484V13.7337H16.9821C17.1028 13.7337 17.2405 13.7532 17.2405 13.9098C17.2405 14.0898 17.1012 14.1042 16.9318 14.1042" fill="white"/>
<path d="M12.9683 12.8404H10.7131V9.34355C10.7131 8.50969 10.6981 7.43625 9.54023 7.43625C8.36567 7.43625 8.18596 8.34478 8.18596 9.28285V12.8402H5.9308V5.6492H8.09575V6.63193H8.12606C8.34272 6.26513 8.6558 5.96339 9.03195 5.75883C9.40811 5.55428 9.83325 5.45457 10.2621 5.47033C12.5478 5.47033 12.9692 6.95896 12.9692 8.89557L12.9683 12.8404ZM3.38624 4.66624C3.12741 4.66629 2.87437 4.59034 2.65913 4.44799C2.44389 4.30564 2.27613 4.1033 2.17703 3.86654C2.07794 3.62978 2.05197 3.36924 2.10242 3.11787C2.15287 2.8665 2.27747 2.63559 2.46046 2.45433C2.64345 2.27308 2.87662 2.14962 3.13047 2.09958C3.38432 2.04954 3.64746 2.07515 3.88661 2.17319C4.12576 2.27122 4.33018 2.43727 4.47402 2.65034C4.61786 2.8634 4.69466 3.11392 4.6947 3.37021C4.69473 3.54037 4.66091 3.70888 4.59517 3.86611C4.52943 4.02333 4.43307 4.1662 4.31157 4.28655C4.19007 4.40689 4.0458 4.50237 3.88704 4.56752C3.72827 4.63266 3.5581 4.66621 3.38624 4.66624ZM4.51382 12.8404H2.25632V5.6492H4.51382V12.8404ZM14.0926 0.00102673H1.12311C0.828743 -0.00226252 0.545083 0.1103 0.334488 0.313979C0.123893 0.517659 0.00359263 0.795791 0 1.08726V13.9823C0.00346967 14.2739 0.1237 14.5522 0.334287 14.7561C0.544875 14.96 0.828597 15.0728 1.12311 15.0696H14.0926C14.3877 15.0733 14.6722 14.9609 14.8836 14.757C15.095 14.5531 15.2161 14.2744 15.2201 13.9823V1.08633C15.2159 0.794283 15.0948 0.515834 14.8834 0.31216C14.672 0.108485 14.3875 -0.00375577 14.0926 9.59577e-05" fill="white"/>
<path d="M16.9522 13.1212C16.6778 13.1238 16.4156 13.2339 16.223 13.4274C16.0304 13.6209 15.923 13.882 15.9243 14.1537C15.9256 14.4254 16.0356 14.6855 16.2301 14.8772C16.4246 15.0688 16.6878 15.1764 16.9622 15.1764C17.2365 15.1764 17.4998 15.0688 17.6943 14.8772C17.8887 14.6855 17.9987 14.4254 18 14.1537C18.0013 13.882 17.8939 13.6209 17.7013 13.4274C17.5087 13.2339 17.2465 13.1238 16.9721 13.1212H16.9522ZM16.9522 15.0588C16.7722 15.0617 16.5954 15.0118 16.4441 14.9152C16.2928 14.8187 16.1738 14.6799 16.1022 14.5164C16.0305 14.3529 16.0095 14.1721 16.0416 13.9967C16.0738 13.8214 16.1578 13.6594 16.2829 13.5313C16.4081 13.4032 16.5687 13.3147 16.7447 13.2771C16.9206 13.2394 17.1038 13.2542 17.2713 13.3197C17.4387 13.3851 17.5827 13.4983 17.6852 13.6448C17.7877 13.7913 17.844 13.9646 17.8469 14.1428C17.8469 14.1479 17.8469 14.1528 17.8469 14.1579C17.852 14.3917 17.7631 14.6178 17.5997 14.7867C17.4364 14.9555 17.212 15.0532 16.9759 15.0583H16.9524" fill="white"/>
</svg>