<?xml version="1.0" ?>
<!-- Uploaded to: SVG Repo, www.svgrepo.com, Generator: SVG Repo Mixer Tools -->
<svg width="800px" height="800px" viewBox="0 0 24 24" xmlns="http://www.w3.org/2000/svg" xmlns:xlink="http://www.w3.org/1999/xlink">
<defs>
<style>.cls-1{fill:#5a5963;}.cls-2{fill:#2eb1b7;}.cls-3{fill:url(#linear-gradient);}.cls-4{fill:#5dc6d1;}.cls-5{fill:#6c2e7c;}</style>
<linearGradient gradientUnits="userSpaceOnUse" id="linear-gradient" x1="12" x2="12" y1="2.234" y2="6.267">
<stop offset="0" stop-color="#5d5c66"/>
<stop offset="1" stop-color="#48474f"/>
</linearGradient>
</defs>
<g id="Icons">
<path class="cls-1" d="M20,18v2a3,3,0,0,1-3,3H7a3,3,0,0,1-3-3V18Z"/>
<path class="cls-2" d="M20,4V18H4V4A3,3,0,0,1,7,1H17A3,3,0,0,1,20,4Z"/>
<path class="cls-3" d="M13,5H11a1,1,0,0,1,0-2h2a1,1,0,0,1,0,2Z"/>
<rect class="cls-4" height="17" rx="3" width="16" x="4" y="1"/>
</g>
<g data-name="Layer 4" id="Layer_4">
<path class="cls-5" d="M17,24a4,4,0,0,0,4-4V4a4,4,0,0,0-4-4H7A4,4,0,0,0,3,4V20a4,4,0,0,0,4,4ZM5,20V4A2,2,0,0,1,7,2H17a2,2,0,0,1,2,2V20a2,2,0,0,1-2,2H7A2,2,0,0,1,5,20Z"/>
<path class="cls-5" d="M8,19h8a1,1,0,0,0,0-2H8a1,1,0,0,0,0,2Z"/>
<path class="cls-5" d="M11,5h2a1,1,0,0,0,0-2H11a1,1,0,0,0,0,2Z"/>
</g>
</svg>